<svg xmlns="http://www.w3.org/2000/svg" width="520" height="1120" viewBox="0 0 520 1120">
  <defs>
    <linearGradient id="pageBg" x1="0" y1="0" x2="0" y2="1">
      <stop offset="0%" stop-color="#0d1b2a"/>
      <stop offset="100%" stop-color="#102238"/>
    </linearGradient>
    <linearGradient id="goldCard" x1="0" y1="0" x2="1" y2="1">
      <stop offset="0%" stop-color="#c5993e"/>
      <stop offset="100%" stop-color="#dab96e"/>
    </linearGradient>
  </defs>

  <rect width="520" height="1120" fill="url(#pageBg)"/>

  <rect x="20" y="24" width="480" height="86" rx="16" fill="#1b2a3d"/>
  <text x="44" y="63" fill="#f0ece3" font-family="Arial, sans-serif" font-size="24" font-weight="700">Kadikoy, Istanbul, Turkey</text>
  <text x="44" y="90" fill="#bfa36b" font-family="Arial, sans-serif" font-size="14">Konumu Degistir</text>

  <rect x="20" y="128" width="480" height="210" rx="20" fill="url(#goldCard)"/>
  <text x="50" y="172" fill="#0d1b2a" font-family="Arial, sans-serif" font-size="20" font-weight="600">Sonraki Vakit: Ogle</text>
  <text x="50" y="238" fill="#0d1b2a" font-family="Arial, sans-serif" font-size="58" font-weight="700">2s 45dk</text>
  <line x1="50" y1="258" x2="470" y2="258" stroke="#0d1b2a" stroke-opacity="0.2"/>
  <text x="50" y="285" fill="#0d1b2a" fill-opacity="0.55" font-family="Arial, sans-serif" font-size="13" font-weight="600">Miladi</text>
  <text x="50" y="307" fill="#0d1b2a" fill-opacity="0.85" font-family="Arial, sans-serif" font-size="14" font-weight="700">15 Subat 2026</text>
  <text x="380" y="285" fill="#0d1b2a" fill-opacity="0.55" font-family="Arial, sans-serif" font-size="13" font-weight="600">Hicri</text>
  <text x="330" y="307" fill="#0d1b2a" fill-opacity="0.85" font-family="Arial, sans-serif" font-size="14" font-weight="700">17 Saban 1447</text>

  <g>
    <rect x="20" y="356" width="480" height="68" rx="14" fill="#1b2a3d"/>
    <rect x="20" y="438" width="480" height="68" rx="14" fill="#1b2a3d"/>
    <rect x="20" y="520" width="480" height="68" rx="14" fill="#c5993e" fill-opacity="0.15" stroke="#c5993e" stroke-width="1"/>
    <rect x="20" y="602" width="480" height="68" rx="14" fill="#1b2a3d"/>
    <rect x="20" y="684" width="480" height="68" rx="14" fill="#1b2a3d"/>
    <rect x="20" y="766" width="480" height="68" rx="14" fill="#1b2a3d"/>
  </g>

  <g font-family="Arial, sans-serif" font-size="24">
    <text x="46" y="399" fill="#f0ece3">Imsak</text><text x="412" y="399" fill="#f0ece3">06:07</text>
    <text x="46" y="481" fill="#f0ece3">Gunes</text><text x="412" y="481" fill="#f0ece3">07:29</text>
    <text x="46" y="563" fill="#dab96e" font-weight="700">Ogle</text><text x="412" y="563" fill="#dab96e" font-weight="700">13:14</text>
    <text x="46" y="645" fill="#f0ece3">Ikindi</text><text x="412" y="645" fill="#f0ece3">16:24</text>
    <text x="46" y="727" fill="#f0ece3">Aksam</text><text x="412" y="727" fill="#f0ece3">18:51</text>
    <text x="46" y="809" fill="#f0ece3">Yatsi</text><text x="412" y="809" fill="#f0ece3">20:11</text>
  </g>

  <rect x="20" y="854" width="480" height="216" rx="14" fill="#243447"/>
  <text x="44" y="894" fill="#dab96e" font-family="Arial, sans-serif" font-size="16" font-weight="700">Gunluk Ayet</text>
  <text x="44" y="930" fill="#f0ece3" font-family="Arial, sans-serif" font-size="14">Ve sabredenlerle beraber olun...</text>
  <text x="44" y="956" fill="#f0ece3" font-family="Arial, sans-serif" font-size="14">(Bakara 2:153)</text>
  <text x="44" y="992" fill="#bfa36b" font-family="Arial, sans-serif" font-size="13">Bakara Suresi, 153. Ayet</text>
</svg>
