<svg xmlns="http://www.w3.org/2000/svg" width="720" height="1480" viewBox="0 0 720 1480">
  <defs>
    <linearGradient id="bg" x1="0" y1="0" x2="0" y2="1">
      <stop offset="0%" stop-color="#0d1b2a"/>
      <stop offset="100%" stop-color="#10243a"/>
    </linearGradient>
    <linearGradient id="gold" x1="0" y1="0" x2="1" y2="1">
      <stop offset="0%" stop-color="#c5993e"/>
      <stop offset="100%" stop-color="#dab96e"/>
    </linearGradient>
  </defs>

  <rect width="720" height="1480" fill="url(#bg)"/>
  <text x="60" y="90" fill="#f0ece3" font-family="Arial, sans-serif" font-size="40" font-weight="700">Vaktim</text>
  <text x="60" y="130" fill="#bfa36b" font-family="Arial, sans-serif" font-size="24">Istanbul, Turkey</text>

  <rect x="48" y="170" width="624" height="260" rx="34" fill="url(#gold)"/>
  <text x="84" y="245" fill="#0d1b2a" font-family="Arial, sans-serif" font-size="30" font-weight="600">Sonraki Vakit: Ogle</text>
  <text x="84" y="325" fill="#0d1b2a" font-family="Arial, sans-serif" font-size="72" font-weight="700">2s 45dk</text>
  <text x="84" y="385" fill="#0d1b2a" font-family="Arial, sans-serif" font-size="24">15 Subat 2026</text>

  <g fill="#1b2a3d">
    <rect x="48" y="470" width="624" height="120" rx="18"/>
    <rect x="48" y="610" width="624" height="120" rx="18"/>
    <rect x="48" y="750" width="624" height="120" rx="18"/>
    <rect x="48" y="890" width="624" height="120" rx="18"/>
    <rect x="48" y="1030" width="624" height="120" rx="18"/>
    <rect x="48" y="1170" width="624" height="120" rx="18"/>
  </g>

  <g fill="#f0ece3" font-family="Arial, sans-serif" font-size="34">
    <text x="84" y="545">Imsak</text><text x="560" y="545">06:07</text>
    <text x="84" y="685">Gunes</text><text x="560" y="685">07:29</text>
    <text x="84" y="825">Ogle</text><text x="560" y="825">13:14</text>
    <text x="84" y="965">Ikindi</text><text x="560" y="965">16:24</text>
    <text x="84" y="1105">Aksam</text><text x="560" y="1105">18:51</text>
    <text x="84" y="1245">Yatsi</text><text x="560" y="1245">20:11</text>
  </g>
</svg>
